<svg width="900" height="260" viewBox="0 0 900 260" fill="none" xmlns="http://www.w3.org/2000/svg" role="img" aria-labelledby="title desc">
  <title id="title">Data Pipeline &amp; Analytics - Demetrio Bernardo</title>
  <desc id="desc">Banner representing a modern data pipeline from sources to data warehouse and BI dashboards.</desc>

  <defs>
    <linearGradient id="bgGradient" x1="0" y1="0" x2="900" y2="260" gradientUnits="userSpaceOnUse">
      <stop offset="0" stop-color="#050816"/>
      <stop offset="0.5" stop-color="#0B1020"/>
      <stop offset="1" stop-color="#111827"/>
    </linearGradient>

    <linearGradient id="neonPink" x1="0" y1="0" x2="1" y2="1">
      <stop offset="0" stop-color="#FF4EDA"/>
      <stop offset="1" stop-color="#FF1493"/>
    </linearGradient>

    <linearGradient id="neonBlue" x1="0" y1="0" x2="1" y2="1">
      <stop offset="0" stop-color="#38BDF8"/>
      <stop offset="1" stop-color="#0EA5E9"/>
    </linearGradient>

    <filter id="shadow" x="-20%" y="-20%" width="140%" height="140%">
      <feDropShadow dx="0" dy="0" stdDeviation="8" flood-color="#000000" flood-opacity="0.6"/>
    </filter>

    <filter id="neonGlow">
      <feGaussianBlur stdDeviation="4" result="blur"/>
      <feColorMatrix in="blur" type="matrix"
        values="0 0 0 0 1
                0 0 0 0 0.3
                0 0 0 0 0.7
                0 0 0 0.8 0"/>
    </filter>

    <style>
      .title { font-family: system-ui, -apple-system, BlinkMacSystemFont, "Segoe UI", sans-serif; font-weight: 700; }
      .mono { font-family: "Fira Code", "JetBrains Mono", ui-monospace, SFMono-Regular, Menlo, Monaco, Consolas, "Liberation Mono", "Courier New", monospace; }
      .label { font-family: system-ui, -apple-system, BlinkMacSystemFont, "Segoe UI", sans-serif; font-weight: 500; }
    </style>
  </defs>

  <rect x="0" y="0" width="900" height="260" rx="24" fill="url(#bgGradient)"/>

  <g opacity="0.13">
    <path d="M40 60 H860" stroke="#4B5563" stroke-width="0.7" stroke-dasharray="4 6"/>
    <path d="M40 110 H860" stroke="#4B5563" stroke-width="0.7" stroke-dasharray="4 6"/>
    <path d="M40 160 H860" stroke="#4B5563" stroke-width="0.7" stroke-dasharray="4 6"/>
    <path d="M40 210 H860" stroke="#4B5563" stroke-width="0.7" stroke-dasharray="4 6"/>
  </g>

  <text x="60" y="80" class="title" font-size="26" fill="#F9FAFB">
    Demetrio Bernardo
  </text>

  <text x="60" y="108" class="mono" font-size="16" fill="#E5E7EB">
    Data Warehouse • BI • Analytics • Cloud
  </text>

  <text x="60" y="136" class="mono" font-size="13" fill="#9CA3AF">
    Turning data into insight, dashboards and real business decisions.
  </text>

  <rect x="640" y="40" rx="999" ry="999" width="200" height="32" fill="#020617" stroke="#1F2937"/>
  <text x="652" y="61" class="mono" font-size="13" fill="#F9A8D4">
    ■ Data &amp; Analytics Engineer
  </text>

  <g filter="url(#shadow)">
    <rect x="80" y="165" width="150" height="60" rx="14" fill="#020617" stroke="#4B5563" stroke-width="1.2"/>
  </g>
  <text x="100" y="192" class="label" font-size="14" fill="#E5E7EB">Data Sources</text>
  <text x="100" y="212" class="mono" font-size="10" fill="#9CA3AF">CRM • ERP • APIs</text>

  <g filter="url(#shadow)">
    <rect x="270" y="165" width="150" height="60" rx="14" fill="#020617" stroke="url(#neonPink)" stroke-width="1.4"/>
  </g>
  <text x="290" y="192" class="label" font-size="14" fill="#F9A8D4">ETL / Orchestration</text>
  <text x="290" y="212" class="mono" font-size="10" fill="#F97316">Python • Airflow</text>

  <g filter="url(#shadow)">
    <rect x="460" y="165" width="150" height="60" rx="14" fill="#020617" stroke="url(#neonBlue)" stroke-width="1.4"/>
  </g>
  <text x="480" y="192" class="label" font-size="14" fill="#BAE6FD">Data Warehouse</text>
  <text x="480" y="212" class="mono" font-size="10" fill="#60A5FA">BigQuery • SQL</text>

  <g filter="url(#shadow)">
    <rect x="650" y="165" width="150" height="60" rx="14" fill="#020617" stroke="#22C55E" stroke-width="1.4"/>
  </g>
  <text x="670" y="192" class="label" font-size="14" fill="#BBF7D0">BI &amp; Dashboards</text>
  <text x="670" y="212" class="mono" font-size="10" fill="#4ADE80">Power BI • Storytelling</text>

  <g stroke-width="2.2" stroke-linecap="round" stroke-linejoin="round">
    <path d="M230 195 H260" stroke="#9CA3AF"/>
    <path d="M252 189 L260 195 L252 201" stroke="#9CA3AF"/>

    <path d="M420 195 H450" stroke="#F472B6"/>
    <path d="M442 189 L450 195 L442 201" stroke="#F472B6"/>

    <path d="M610 195 H640" stroke="#38BDF8"/>
    <path d="M632 189 L640 195 L632 201" stroke="#38BDF8"/>
  </g>

  <g transform="translate(620,80)">
    <rect x="0" y="0" width="220" height="70" rx="14" fill="#020617" stroke="#1F2937" stroke-width="1.2"/>
    <text x="14" y="22" class="mono" font-size="11" fill="#9CA3AF">exec_dashboard()</text>

    <rect x="18" y="40" width="18" height="22" rx="3" fill="#22C55E"/>
    <rect x="46" y="32" width="18" height="30" rx="3" fill="#38BDF8"/>
    <rect x="74" y="26" width="18" height="36" rx="3" fill="#F97316"/>
    <rect x="102" y="20" width="18" height="42" rx="3" fill="#F472B6"/>

    <polyline points="140,48 160,42 180,38 200,30" fill="none" stroke="#EAB308" stroke-width="2" stroke-linecap="round" stroke-linejoin="round"/>

    <circle cx="140" cy="48" r="3" fill="#EAB308"/>
    <circle cx="160" cy="42" r="3" fill="#EAB308"/>
    <circle cx="180" cy="38" r="3" fill="#EAB308"/>
    <circle cx="200" cy="30" r="3" fill="#EAB308"/>
  </g>

  <ellipse cx="535" cy="195" rx="120" ry="60" fill="url(#neonBlue)" opacity="0.15" filter="url(#neonGlow)"/>
</svg>
